%FSLAX45Y45*%
G04 Gerber Fmt 4.5, Leading zero omitted, Abs format (unit mm)*
G04 Created by KiCad (PCBNEW (5.1.9)-1) date 2024-06-03 11:22:28*
%MOMM*%
%LPD*%
G01*
G04 APERTURE LIST*
%TA.AperFunction,Profile*%
%ADD10C,0.200000*%
%TD*%
%ADD11C,0.200000*%
%ADD12C,0.300000*%
G04 APERTURE END LIST*
D10*
X16078760Y-10208520D02*
X15078760Y-11208520D01*
X16078760Y-8708520D02*
X16078760Y-10208520D01*
X12578760Y-11208520D02*
X15078760Y-11208520D01*
X12578760Y-8708520D02*
X12578760Y-11208520D01*
X12578760Y-8708520D02*
X16078760Y-8708520D01*
D11*
X12915000Y-9905000D02*
X13065000Y-10055000D01*
X13065000Y-9905000D02*
X12915000Y-10055000D01*
X14964000Y-9905000D02*
X15114000Y-10055000D01*
X15114000Y-9905000D02*
X14964000Y-10055000D01*
X13280000Y-9210000D02*
G75*
G03*
X13280000Y-9210000I-200000J0D01*
G01*
D12*
X12855188Y-11684234D02*
X12855188Y-11384234D01*
X12926617Y-11384234D01*
X12969474Y-11398520D01*
X12998046Y-11427091D01*
X13012331Y-11455663D01*
X13026617Y-11512806D01*
X13026617Y-11555663D01*
X13012331Y-11612806D01*
X12998046Y-11641377D01*
X12969474Y-11669949D01*
X12926617Y-11684234D01*
X12855188Y-11684234D01*
X13155188Y-11684234D02*
X13155188Y-11484234D01*
X13155188Y-11541377D02*
X13169474Y-11512806D01*
X13183760Y-11498520D01*
X13212331Y-11484234D01*
X13240903Y-11484234D01*
X13340903Y-11684234D02*
X13340903Y-11484234D01*
X13340903Y-11384234D02*
X13326617Y-11398520D01*
X13340903Y-11412806D01*
X13355188Y-11398520D01*
X13340903Y-11384234D01*
X13340903Y-11412806D01*
X13526617Y-11684234D02*
X13498046Y-11669949D01*
X13483760Y-11641377D01*
X13483760Y-11384234D01*
X13683760Y-11684234D02*
X13655188Y-11669949D01*
X13640903Y-11641377D01*
X13640903Y-11384234D01*
X14026617Y-11684234D02*
X14026617Y-11384234D01*
X14126617Y-11598520D01*
X14226617Y-11384234D01*
X14226617Y-11684234D01*
X14498046Y-11684234D02*
X14498046Y-11527091D01*
X14483760Y-11498520D01*
X14455188Y-11484234D01*
X14398046Y-11484234D01*
X14369474Y-11498520D01*
X14498046Y-11669949D02*
X14469474Y-11684234D01*
X14398046Y-11684234D01*
X14369474Y-11669949D01*
X14355188Y-11641377D01*
X14355188Y-11612806D01*
X14369474Y-11584234D01*
X14398046Y-11569949D01*
X14469474Y-11569949D01*
X14498046Y-11555663D01*
X14640903Y-11484234D02*
X14640903Y-11784234D01*
X14640903Y-11498520D02*
X14669474Y-11484234D01*
X14726617Y-11484234D01*
X14755188Y-11498520D01*
X14769474Y-11512806D01*
X14783760Y-11541377D01*
X14783760Y-11627091D01*
X14769474Y-11655663D01*
X14755188Y-11669949D01*
X14726617Y-11684234D01*
X14669474Y-11684234D01*
X14640903Y-11669949D01*
X14912331Y-11655663D02*
X14926617Y-11669949D01*
X14912331Y-11684234D01*
X14898046Y-11669949D01*
X14912331Y-11655663D01*
X14912331Y-11684234D01*
X14912331Y-11498520D02*
X14926617Y-11512806D01*
X14912331Y-11527091D01*
X14898046Y-11512806D01*
X14912331Y-11498520D01*
X14912331Y-11527091D01*
X12418760Y-12103520D02*
X12568760Y-12253520D01*
X12568760Y-12103520D02*
X12418760Y-12253520D01*
X13012331Y-12314234D02*
X12840903Y-12314234D01*
X12926617Y-12314234D02*
X12926617Y-12014234D01*
X12898046Y-12057091D01*
X12869474Y-12085663D01*
X12840903Y-12099949D01*
X13140903Y-12285663D02*
X13155188Y-12299949D01*
X13140903Y-12314234D01*
X13126617Y-12299949D01*
X13140903Y-12285663D01*
X13140903Y-12314234D01*
X13426617Y-12014234D02*
X13283760Y-12014234D01*
X13269474Y-12157091D01*
X13283760Y-12142806D01*
X13312331Y-12128520D01*
X13383760Y-12128520D01*
X13412331Y-12142806D01*
X13426617Y-12157091D01*
X13440903Y-12185663D01*
X13440903Y-12257091D01*
X13426617Y-12285663D01*
X13412331Y-12299949D01*
X13383760Y-12314234D01*
X13312331Y-12314234D01*
X13283760Y-12299949D01*
X13269474Y-12285663D01*
X13626617Y-12014234D02*
X13655188Y-12014234D01*
X13683760Y-12028520D01*
X13698046Y-12042806D01*
X13712331Y-12071377D01*
X13726617Y-12128520D01*
X13726617Y-12199949D01*
X13712331Y-12257091D01*
X13698046Y-12285663D01*
X13683760Y-12299949D01*
X13655188Y-12314234D01*
X13626617Y-12314234D01*
X13598046Y-12299949D01*
X13583760Y-12285663D01*
X13569474Y-12257091D01*
X13555188Y-12199949D01*
X13555188Y-12128520D01*
X13569474Y-12071377D01*
X13583760Y-12042806D01*
X13598046Y-12028520D01*
X13626617Y-12014234D01*
X13855188Y-12314234D02*
X13855188Y-12114234D01*
X13855188Y-12142806D02*
X13869474Y-12128520D01*
X13898046Y-12114234D01*
X13940903Y-12114234D01*
X13969474Y-12128520D01*
X13983760Y-12157091D01*
X13983760Y-12314234D01*
X13983760Y-12157091D02*
X13998046Y-12128520D01*
X14026617Y-12114234D01*
X14069474Y-12114234D01*
X14098046Y-12128520D01*
X14112331Y-12157091D01*
X14112331Y-12314234D01*
X14255188Y-12314234D02*
X14255188Y-12114234D01*
X14255188Y-12142806D02*
X14269474Y-12128520D01*
X14298046Y-12114234D01*
X14340903Y-12114234D01*
X14369474Y-12128520D01*
X14383760Y-12157091D01*
X14383760Y-12314234D01*
X14383760Y-12157091D02*
X14398046Y-12128520D01*
X14426617Y-12114234D01*
X14469474Y-12114234D01*
X14498046Y-12128520D01*
X14512331Y-12157091D01*
X14512331Y-12314234D01*
X15098046Y-11999949D02*
X14840903Y-12385663D01*
X15483760Y-12014234D02*
X15512331Y-12014234D01*
X15540903Y-12028520D01*
X15555188Y-12042806D01*
X15569474Y-12071377D01*
X15583760Y-12128520D01*
X15583760Y-12199949D01*
X15569474Y-12257091D01*
X15555188Y-12285663D01*
X15540903Y-12299949D01*
X15512331Y-12314234D01*
X15483760Y-12314234D01*
X15455188Y-12299949D01*
X15440903Y-12285663D01*
X15426617Y-12257091D01*
X15412331Y-12199949D01*
X15412331Y-12128520D01*
X15426617Y-12071377D01*
X15440903Y-12042806D01*
X15455188Y-12028520D01*
X15483760Y-12014234D01*
X15712331Y-12285663D02*
X15726617Y-12299949D01*
X15712331Y-12314234D01*
X15698046Y-12299949D01*
X15712331Y-12285663D01*
X15712331Y-12314234D01*
X15912331Y-12014234D02*
X15940903Y-12014234D01*
X15969474Y-12028520D01*
X15983760Y-12042806D01*
X15998046Y-12071377D01*
X16012331Y-12128520D01*
X16012331Y-12199949D01*
X15998046Y-12257091D01*
X15983760Y-12285663D01*
X15969474Y-12299949D01*
X15940903Y-12314234D01*
X15912331Y-12314234D01*
X15883760Y-12299949D01*
X15869474Y-12285663D01*
X15855188Y-12257091D01*
X15840903Y-12199949D01*
X15840903Y-12128520D01*
X15855188Y-12071377D01*
X15869474Y-12042806D01*
X15883760Y-12028520D01*
X15912331Y-12014234D01*
X16283760Y-12014234D02*
X16140903Y-12014234D01*
X16126617Y-12157091D01*
X16140903Y-12142806D01*
X16169474Y-12128520D01*
X16240903Y-12128520D01*
X16269474Y-12142806D01*
X16283760Y-12157091D01*
X16298046Y-12185663D01*
X16298046Y-12257091D01*
X16283760Y-12285663D01*
X16269474Y-12299949D01*
X16240903Y-12314234D01*
X16169474Y-12314234D01*
X16140903Y-12299949D01*
X16126617Y-12285663D01*
X16440903Y-12314234D02*
X16498046Y-12314234D01*
X16526617Y-12299949D01*
X16540903Y-12285663D01*
X16569474Y-12242806D01*
X16583760Y-12185663D01*
X16583760Y-12071377D01*
X16569474Y-12042806D01*
X16555188Y-12028520D01*
X16526617Y-12014234D01*
X16469474Y-12014234D01*
X16440903Y-12028520D01*
X16426617Y-12042806D01*
X16412331Y-12071377D01*
X16412331Y-12142806D01*
X16426617Y-12171377D01*
X16440903Y-12185663D01*
X16469474Y-12199949D01*
X16526617Y-12199949D01*
X16555188Y-12185663D01*
X16569474Y-12171377D01*
X16583760Y-12142806D01*
X16698046Y-12014234D02*
X16698046Y-12071377D01*
X16812331Y-12014234D02*
X16812331Y-12071377D01*
X17255188Y-12428520D02*
X17240903Y-12414234D01*
X17212331Y-12371377D01*
X17198046Y-12342806D01*
X17183760Y-12299949D01*
X17169474Y-12228520D01*
X17169474Y-12171377D01*
X17183760Y-12099949D01*
X17198046Y-12057091D01*
X17212331Y-12028520D01*
X17240903Y-11985663D01*
X17255188Y-11971377D01*
X17355188Y-12042806D02*
X17369474Y-12028520D01*
X17398046Y-12014234D01*
X17469474Y-12014234D01*
X17498046Y-12028520D01*
X17512331Y-12042806D01*
X17526617Y-12071377D01*
X17526617Y-12099949D01*
X17512331Y-12142806D01*
X17340903Y-12314234D01*
X17526617Y-12314234D01*
X17883760Y-12314234D02*
X17883760Y-12014234D01*
X18012331Y-12314234D02*
X18012331Y-12157091D01*
X17998046Y-12128520D01*
X17969474Y-12114234D01*
X17926617Y-12114234D01*
X17898046Y-12128520D01*
X17883760Y-12142806D01*
X18198046Y-12314234D02*
X18169474Y-12299949D01*
X18155188Y-12285663D01*
X18140903Y-12257091D01*
X18140903Y-12171377D01*
X18155188Y-12142806D01*
X18169474Y-12128520D01*
X18198046Y-12114234D01*
X18240903Y-12114234D01*
X18269474Y-12128520D01*
X18283760Y-12142806D01*
X18298046Y-12171377D01*
X18298046Y-12257091D01*
X18283760Y-12285663D01*
X18269474Y-12299949D01*
X18240903Y-12314234D01*
X18198046Y-12314234D01*
X18469474Y-12314234D02*
X18440903Y-12299949D01*
X18426617Y-12271377D01*
X18426617Y-12014234D01*
X18698046Y-12299949D02*
X18669474Y-12314234D01*
X18612331Y-12314234D01*
X18583760Y-12299949D01*
X18569474Y-12271377D01*
X18569474Y-12157091D01*
X18583760Y-12128520D01*
X18612331Y-12114234D01*
X18669474Y-12114234D01*
X18698046Y-12128520D01*
X18712331Y-12157091D01*
X18712331Y-12185663D01*
X18569474Y-12214234D01*
X18826617Y-12299949D02*
X18855188Y-12314234D01*
X18912331Y-12314234D01*
X18940903Y-12299949D01*
X18955188Y-12271377D01*
X18955188Y-12257091D01*
X18940903Y-12228520D01*
X18912331Y-12214234D01*
X18869474Y-12214234D01*
X18840903Y-12199949D01*
X18826617Y-12171377D01*
X18826617Y-12157091D01*
X18840903Y-12128520D01*
X18869474Y-12114234D01*
X18912331Y-12114234D01*
X18940903Y-12128520D01*
X19055188Y-12428520D02*
X19069474Y-12414234D01*
X19098046Y-12371377D01*
X19112331Y-12342806D01*
X19126617Y-12299949D01*
X19140903Y-12228520D01*
X19140903Y-12171377D01*
X19126617Y-12099949D01*
X19112331Y-12057091D01*
X19098046Y-12028520D01*
X19069474Y-11985663D01*
X19055188Y-11971377D01*
X12568760Y-12574520D02*
G75*
G03*
X12568760Y-12574520I-200000J0D01*
G01*
X12983760Y-12510234D02*
X12983760Y-12710234D01*
X12912331Y-12395949D02*
X12840903Y-12610234D01*
X13026617Y-12610234D01*
X13140903Y-12681663D02*
X13155188Y-12695949D01*
X13140903Y-12710234D01*
X13126617Y-12695949D01*
X13140903Y-12681663D01*
X13140903Y-12710234D01*
X13340903Y-12410234D02*
X13369474Y-12410234D01*
X13398046Y-12424520D01*
X13412331Y-12438806D01*
X13426617Y-12467377D01*
X13440903Y-12524520D01*
X13440903Y-12595949D01*
X13426617Y-12653091D01*
X13412331Y-12681663D01*
X13398046Y-12695949D01*
X13369474Y-12710234D01*
X13340903Y-12710234D01*
X13312331Y-12695949D01*
X13298046Y-12681663D01*
X13283760Y-12653091D01*
X13269474Y-12595949D01*
X13269474Y-12524520D01*
X13283760Y-12467377D01*
X13298046Y-12438806D01*
X13312331Y-12424520D01*
X13340903Y-12410234D01*
X13626617Y-12410234D02*
X13655188Y-12410234D01*
X13683760Y-12424520D01*
X13698046Y-12438806D01*
X13712331Y-12467377D01*
X13726617Y-12524520D01*
X13726617Y-12595949D01*
X13712331Y-12653091D01*
X13698046Y-12681663D01*
X13683760Y-12695949D01*
X13655188Y-12710234D01*
X13626617Y-12710234D01*
X13598046Y-12695949D01*
X13583760Y-12681663D01*
X13569474Y-12653091D01*
X13555188Y-12595949D01*
X13555188Y-12524520D01*
X13569474Y-12467377D01*
X13583760Y-12438806D01*
X13598046Y-12424520D01*
X13626617Y-12410234D01*
X13855188Y-12710234D02*
X13855188Y-12510234D01*
X13855188Y-12538806D02*
X13869474Y-12524520D01*
X13898046Y-12510234D01*
X13940903Y-12510234D01*
X13969474Y-12524520D01*
X13983760Y-12553091D01*
X13983760Y-12710234D01*
X13983760Y-12553091D02*
X13998046Y-12524520D01*
X14026617Y-12510234D01*
X14069474Y-12510234D01*
X14098046Y-12524520D01*
X14112331Y-12553091D01*
X14112331Y-12710234D01*
X14255188Y-12710234D02*
X14255188Y-12510234D01*
X14255188Y-12538806D02*
X14269474Y-12524520D01*
X14298046Y-12510234D01*
X14340903Y-12510234D01*
X14369474Y-12524520D01*
X14383760Y-12553091D01*
X14383760Y-12710234D01*
X14383760Y-12553091D02*
X14398046Y-12524520D01*
X14426617Y-12510234D01*
X14469474Y-12510234D01*
X14498046Y-12524520D01*
X14512331Y-12553091D01*
X14512331Y-12710234D01*
X15098046Y-12395949D02*
X14840903Y-12781663D01*
X15483760Y-12410234D02*
X15512331Y-12410234D01*
X15540903Y-12424520D01*
X15555188Y-12438806D01*
X15569474Y-12467377D01*
X15583760Y-12524520D01*
X15583760Y-12595949D01*
X15569474Y-12653091D01*
X15555188Y-12681663D01*
X15540903Y-12695949D01*
X15512331Y-12710234D01*
X15483760Y-12710234D01*
X15455188Y-12695949D01*
X15440903Y-12681663D01*
X15426617Y-12653091D01*
X15412331Y-12595949D01*
X15412331Y-12524520D01*
X15426617Y-12467377D01*
X15440903Y-12438806D01*
X15455188Y-12424520D01*
X15483760Y-12410234D01*
X15712331Y-12681663D02*
X15726617Y-12695949D01*
X15712331Y-12710234D01*
X15698046Y-12695949D01*
X15712331Y-12681663D01*
X15712331Y-12710234D01*
X16012331Y-12710234D02*
X15840903Y-12710234D01*
X15926617Y-12710234D02*
X15926617Y-12410234D01*
X15898046Y-12453091D01*
X15869474Y-12481663D01*
X15840903Y-12495949D01*
X16283760Y-12410234D02*
X16140903Y-12410234D01*
X16126617Y-12553091D01*
X16140903Y-12538806D01*
X16169474Y-12524520D01*
X16240903Y-12524520D01*
X16269474Y-12538806D01*
X16283760Y-12553091D01*
X16298046Y-12581663D01*
X16298046Y-12653091D01*
X16283760Y-12681663D01*
X16269474Y-12695949D01*
X16240903Y-12710234D01*
X16169474Y-12710234D01*
X16140903Y-12695949D01*
X16126617Y-12681663D01*
X16398046Y-12410234D02*
X16598046Y-12410234D01*
X16469474Y-12710234D01*
X16698046Y-12410234D02*
X16698046Y-12467377D01*
X16812331Y-12410234D02*
X16812331Y-12467377D01*
X17255188Y-12824520D02*
X17240903Y-12810234D01*
X17212331Y-12767377D01*
X17198046Y-12738806D01*
X17183760Y-12695949D01*
X17169474Y-12624520D01*
X17169474Y-12567377D01*
X17183760Y-12495949D01*
X17198046Y-12453091D01*
X17212331Y-12424520D01*
X17240903Y-12381663D01*
X17255188Y-12367377D01*
X17526617Y-12710234D02*
X17355188Y-12710234D01*
X17440903Y-12710234D02*
X17440903Y-12410234D01*
X17412331Y-12453091D01*
X17383760Y-12481663D01*
X17355188Y-12495949D01*
X17883760Y-12710234D02*
X17883760Y-12410234D01*
X18012331Y-12710234D02*
X18012331Y-12553091D01*
X17998046Y-12524520D01*
X17969474Y-12510234D01*
X17926617Y-12510234D01*
X17898046Y-12524520D01*
X17883760Y-12538806D01*
X18198046Y-12710234D02*
X18169474Y-12695949D01*
X18155188Y-12681663D01*
X18140903Y-12653091D01*
X18140903Y-12567377D01*
X18155188Y-12538806D01*
X18169474Y-12524520D01*
X18198046Y-12510234D01*
X18240903Y-12510234D01*
X18269474Y-12524520D01*
X18283760Y-12538806D01*
X18298046Y-12567377D01*
X18298046Y-12653091D01*
X18283760Y-12681663D01*
X18269474Y-12695949D01*
X18240903Y-12710234D01*
X18198046Y-12710234D01*
X18469474Y-12710234D02*
X18440903Y-12695949D01*
X18426617Y-12667377D01*
X18426617Y-12410234D01*
X18698046Y-12695949D02*
X18669474Y-12710234D01*
X18612331Y-12710234D01*
X18583760Y-12695949D01*
X18569474Y-12667377D01*
X18569474Y-12553091D01*
X18583760Y-12524520D01*
X18612331Y-12510234D01*
X18669474Y-12510234D01*
X18698046Y-12524520D01*
X18712331Y-12553091D01*
X18712331Y-12581663D01*
X18569474Y-12610234D01*
X18812331Y-12824520D02*
X18826617Y-12810234D01*
X18855188Y-12767377D01*
X18869474Y-12738806D01*
X18883760Y-12695949D01*
X18898046Y-12624520D01*
X18898046Y-12567377D01*
X18883760Y-12495949D01*
X18869474Y-12453091D01*
X18855188Y-12424520D01*
X18826617Y-12381663D01*
X18812331Y-12367377D01*
X19355188Y-12824520D02*
X19340903Y-12810234D01*
X19312331Y-12767377D01*
X19298046Y-12738806D01*
X19283760Y-12695949D01*
X19269474Y-12624520D01*
X19269474Y-12567377D01*
X19283760Y-12495949D01*
X19298046Y-12453091D01*
X19312331Y-12424520D01*
X19340903Y-12381663D01*
X19355188Y-12367377D01*
X19469474Y-12510234D02*
X19469474Y-12710234D01*
X19469474Y-12538806D02*
X19483760Y-12524520D01*
X19512331Y-12510234D01*
X19555188Y-12510234D01*
X19583760Y-12524520D01*
X19598046Y-12553091D01*
X19598046Y-12710234D01*
X19783760Y-12710234D02*
X19755188Y-12695949D01*
X19740903Y-12681663D01*
X19726617Y-12653091D01*
X19726617Y-12567377D01*
X19740903Y-12538806D01*
X19755188Y-12524520D01*
X19783760Y-12510234D01*
X19826617Y-12510234D01*
X19855188Y-12524520D01*
X19869474Y-12538806D01*
X19883760Y-12567377D01*
X19883760Y-12653091D01*
X19869474Y-12681663D01*
X19855188Y-12695949D01*
X19826617Y-12710234D01*
X19783760Y-12710234D01*
X19969474Y-12510234D02*
X20083760Y-12510234D01*
X20012331Y-12410234D02*
X20012331Y-12667377D01*
X20026617Y-12695949D01*
X20055188Y-12710234D01*
X20083760Y-12710234D01*
X20412331Y-12510234D02*
X20412331Y-12810234D01*
X20412331Y-12524520D02*
X20440903Y-12510234D01*
X20498046Y-12510234D01*
X20526617Y-12524520D01*
X20540903Y-12538806D01*
X20555188Y-12567377D01*
X20555188Y-12653091D01*
X20540903Y-12681663D01*
X20526617Y-12695949D01*
X20498046Y-12710234D01*
X20440903Y-12710234D01*
X20412331Y-12695949D01*
X20726617Y-12710234D02*
X20698046Y-12695949D01*
X20683760Y-12667377D01*
X20683760Y-12410234D01*
X20969474Y-12710234D02*
X20969474Y-12553091D01*
X20955188Y-12524520D01*
X20926617Y-12510234D01*
X20869474Y-12510234D01*
X20840903Y-12524520D01*
X20969474Y-12695949D02*
X20940903Y-12710234D01*
X20869474Y-12710234D01*
X20840903Y-12695949D01*
X20826617Y-12667377D01*
X20826617Y-12638806D01*
X20840903Y-12610234D01*
X20869474Y-12595949D01*
X20940903Y-12595949D01*
X20969474Y-12581663D01*
X21069474Y-12510234D02*
X21183760Y-12510234D01*
X21112331Y-12410234D02*
X21112331Y-12667377D01*
X21126617Y-12695949D01*
X21155188Y-12710234D01*
X21183760Y-12710234D01*
X21398046Y-12695949D02*
X21369474Y-12710234D01*
X21312331Y-12710234D01*
X21283760Y-12695949D01*
X21269474Y-12667377D01*
X21269474Y-12553091D01*
X21283760Y-12524520D01*
X21312331Y-12510234D01*
X21369474Y-12510234D01*
X21398046Y-12524520D01*
X21412331Y-12553091D01*
X21412331Y-12581663D01*
X21269474Y-12610234D01*
X21669474Y-12710234D02*
X21669474Y-12410234D01*
X21669474Y-12695949D02*
X21640903Y-12710234D01*
X21583760Y-12710234D01*
X21555188Y-12695949D01*
X21540903Y-12681663D01*
X21526617Y-12653091D01*
X21526617Y-12567377D01*
X21540903Y-12538806D01*
X21555188Y-12524520D01*
X21583760Y-12510234D01*
X21640903Y-12510234D01*
X21669474Y-12524520D01*
X21783760Y-12824520D02*
X21798046Y-12810234D01*
X21826617Y-12767377D01*
X21840903Y-12738806D01*
X21855188Y-12695949D01*
X21869474Y-12624520D01*
X21869474Y-12567377D01*
X21855188Y-12495949D01*
X21840903Y-12453091D01*
X21826617Y-12424520D01*
X21798046Y-12381663D01*
X21783760Y-12367377D01*
M02*
