%TF.GenerationSoftware,KiCad,Pcbnew,(5.1.9)-1*%
%TF.CreationDate,2024-06-03T11:22:04+08:00*%
%TF.ProjectId,task1,7461736b-312e-46b6-9963-61645f706362,rev?*%
%TF.SameCoordinates,Original*%
%TF.FileFunction,Copper,L1,Top*%
%TF.FilePolarity,Positive*%
%FSLAX46Y46*%
G04 Gerber Fmt 4.6, Leading zero omitted, Abs format (unit mm)*
G04 Created by KiCad (PCBNEW (5.1.9)-1) date 2024-06-03 11:22:04*
%MOMM*%
%LPD*%
G01*
G04 APERTURE LIST*
%TA.AperFunction,NonConductor*%
%ADD10C,0.300000*%
%TD*%
%TA.AperFunction,Profile*%
%ADD11C,0.200000*%
%TD*%
%TA.AperFunction,SMDPad,CuDef*%
%ADD12R,1.500000X1.500000*%
%TD*%
%TA.AperFunction,ComponentPad*%
%ADD13C,3.000000*%
%TD*%
%TA.AperFunction,ComponentPad*%
%ADD14R,3.000000X3.000000*%
%TD*%
%TA.AperFunction,Conductor*%
%ADD15C,1.000000*%
%TD*%
G04 APERTURE END LIST*
D10*
X124735714Y-120278571D02*
X125592857Y-120278571D01*
X125164285Y-121778571D02*
X125164285Y-120278571D01*
X126307142Y-121778571D02*
X126164285Y-121707142D01*
X126092857Y-121635714D01*
X126021428Y-121492857D01*
X126021428Y-121064285D01*
X126092857Y-120921428D01*
X126164285Y-120850000D01*
X126307142Y-120778571D01*
X126521428Y-120778571D01*
X126664285Y-120850000D01*
X126735714Y-120921428D01*
X126807142Y-121064285D01*
X126807142Y-121492857D01*
X126735714Y-121635714D01*
X126664285Y-121707142D01*
X126521428Y-121778571D01*
X126307142Y-121778571D01*
X127450000Y-120778571D02*
X127450000Y-122278571D01*
X127450000Y-120850000D02*
X127592857Y-120778571D01*
X127878571Y-120778571D01*
X128021428Y-120850000D01*
X128092857Y-120921428D01*
X128164285Y-121064285D01*
X128164285Y-121492857D01*
X128092857Y-121635714D01*
X128021428Y-121707142D01*
X127878571Y-121778571D01*
X127592857Y-121778571D01*
X127450000Y-121707142D01*
X129950000Y-121778571D02*
X129950000Y-120278571D01*
X130521428Y-120278571D01*
X130664285Y-120350000D01*
X130735714Y-120421428D01*
X130807142Y-120564285D01*
X130807142Y-120778571D01*
X130735714Y-120921428D01*
X130664285Y-120992857D01*
X130521428Y-121064285D01*
X129950000Y-121064285D01*
X132092857Y-121778571D02*
X132092857Y-120992857D01*
X132021428Y-120850000D01*
X131878571Y-120778571D01*
X131592857Y-120778571D01*
X131450000Y-120850000D01*
X132092857Y-121707142D02*
X131950000Y-121778571D01*
X131592857Y-121778571D01*
X131450000Y-121707142D01*
X131378571Y-121564285D01*
X131378571Y-121421428D01*
X131450000Y-121278571D01*
X131592857Y-121207142D01*
X131950000Y-121207142D01*
X132092857Y-121135714D01*
X132735714Y-121707142D02*
X132878571Y-121778571D01*
X133164285Y-121778571D01*
X133307142Y-121707142D01*
X133378571Y-121564285D01*
X133378571Y-121492857D01*
X133307142Y-121350000D01*
X133164285Y-121278571D01*
X132950000Y-121278571D01*
X132807142Y-121207142D01*
X132735714Y-121064285D01*
X132735714Y-120992857D01*
X132807142Y-120850000D01*
X132950000Y-120778571D01*
X133164285Y-120778571D01*
X133307142Y-120850000D01*
X133807142Y-120778571D02*
X134378571Y-120778571D01*
X134021428Y-120278571D02*
X134021428Y-121564285D01*
X134092857Y-121707142D01*
X134235714Y-121778571D01*
X134378571Y-121778571D01*
X135450000Y-121707142D02*
X135307142Y-121778571D01*
X135021428Y-121778571D01*
X134878571Y-121707142D01*
X134807142Y-121564285D01*
X134807142Y-120992857D01*
X134878571Y-120850000D01*
X135021428Y-120778571D01*
X135307142Y-120778571D01*
X135450000Y-120850000D01*
X135521428Y-120992857D01*
X135521428Y-121135714D01*
X134807142Y-121278571D01*
X124685714Y-114678571D02*
X125542857Y-114678571D01*
X125114285Y-116178571D02*
X125114285Y-114678571D01*
X126257142Y-116178571D02*
X126114285Y-116107142D01*
X126042857Y-116035714D01*
X125971428Y-115892857D01*
X125971428Y-115464285D01*
X126042857Y-115321428D01*
X126114285Y-115250000D01*
X126257142Y-115178571D01*
X126471428Y-115178571D01*
X126614285Y-115250000D01*
X126685714Y-115321428D01*
X126757142Y-115464285D01*
X126757142Y-115892857D01*
X126685714Y-116035714D01*
X126614285Y-116107142D01*
X126471428Y-116178571D01*
X126257142Y-116178571D01*
X127400000Y-115178571D02*
X127400000Y-116678571D01*
X127400000Y-115250000D02*
X127542857Y-115178571D01*
X127828571Y-115178571D01*
X127971428Y-115250000D01*
X128042857Y-115321428D01*
X128114285Y-115464285D01*
X128114285Y-115892857D01*
X128042857Y-116035714D01*
X127971428Y-116107142D01*
X127828571Y-116178571D01*
X127542857Y-116178571D01*
X127400000Y-116107142D01*
X130614285Y-116178571D02*
X129900000Y-116178571D01*
X129900000Y-114678571D01*
X131757142Y-116178571D02*
X131757142Y-115392857D01*
X131685714Y-115250000D01*
X131542857Y-115178571D01*
X131257142Y-115178571D01*
X131114285Y-115250000D01*
X131757142Y-116107142D02*
X131614285Y-116178571D01*
X131257142Y-116178571D01*
X131114285Y-116107142D01*
X131042857Y-115964285D01*
X131042857Y-115821428D01*
X131114285Y-115678571D01*
X131257142Y-115607142D01*
X131614285Y-115607142D01*
X131757142Y-115535714D01*
X132328571Y-115178571D02*
X132685714Y-116178571D01*
X133042857Y-115178571D02*
X132685714Y-116178571D01*
X132542857Y-116535714D01*
X132471428Y-116607142D01*
X132328571Y-116678571D01*
X134185714Y-116107142D02*
X134042857Y-116178571D01*
X133757142Y-116178571D01*
X133614285Y-116107142D01*
X133542857Y-115964285D01*
X133542857Y-115392857D01*
X133614285Y-115250000D01*
X133757142Y-115178571D01*
X134042857Y-115178571D01*
X134185714Y-115250000D01*
X134257142Y-115392857D01*
X134257142Y-115535714D01*
X133542857Y-115678571D01*
X134900000Y-116178571D02*
X134900000Y-115178571D01*
X134900000Y-115464285D02*
X134971428Y-115321428D01*
X135042857Y-115250000D01*
X135185714Y-115178571D01*
X135328571Y-115178571D01*
X137400000Y-116750000D02*
X137328571Y-116678571D01*
X137185714Y-116464285D01*
X137114285Y-116321428D01*
X137042857Y-116107142D01*
X136971428Y-115750000D01*
X136971428Y-115464285D01*
X137042857Y-115107142D01*
X137114285Y-114892857D01*
X137185714Y-114750000D01*
X137328571Y-114535714D01*
X137400000Y-114464285D01*
X138685714Y-116178571D02*
X137971428Y-116178571D01*
X137971428Y-114678571D01*
X139971428Y-116178571D02*
X139114285Y-116178571D01*
X139542857Y-116178571D02*
X139542857Y-114678571D01*
X139400000Y-114892857D01*
X139257142Y-115035714D01*
X139114285Y-115107142D01*
X140471428Y-116750000D02*
X140542857Y-116678571D01*
X140685714Y-116464285D01*
X140757142Y-116321428D01*
X140828571Y-116107142D01*
X140900000Y-115750000D01*
X140900000Y-115464285D01*
X140828571Y-115107142D01*
X140757142Y-114892857D01*
X140685714Y-114750000D01*
X140542857Y-114535714D01*
X140471428Y-114464285D01*
D11*
X160787600Y-102085200D02*
X150787600Y-112085200D01*
X160787600Y-87085200D02*
X160787600Y-102085200D01*
X125787600Y-112085200D02*
X150787600Y-112085200D01*
X125787600Y-87085200D02*
X125787600Y-112085200D01*
X125787600Y-87085200D02*
X160787600Y-87085200D01*
D12*
%TO.P,SW1,2*%
%TO.N,Net-(R1-Pad2)*%
X136200000Y-99700000D03*
%TO.P,SW1,1*%
%TO.N,Net-(D1-Pad2)*%
X144000000Y-99700000D03*
%TD*%
%TO.P,R1,2*%
%TO.N,Net-(R1-Pad2)*%
%TA.AperFunction,SMDPad,CuDef*%
G36*
G01*
X131700000Y-108325001D02*
X131700000Y-107074999D01*
G75*
G02*
X131949999Y-106825000I249999J0D01*
G01*
X132575001Y-106825000D01*
G75*
G02*
X132825000Y-107074999I0J-249999D01*
G01*
X132825000Y-108325001D01*
G75*
G02*
X132575001Y-108575000I-249999J0D01*
G01*
X131949999Y-108575000D01*
G75*
G02*
X131700000Y-108325001I0J249999D01*
G01*
G37*
%TD.AperFunction*%
%TO.P,R1,1*%
%TO.N,Net-(BT1-Pad1)*%
%TA.AperFunction,SMDPad,CuDef*%
G36*
G01*
X128775000Y-108325001D02*
X128775000Y-107074999D01*
G75*
G02*
X129024999Y-106825000I249999J0D01*
G01*
X129650001Y-106825000D01*
G75*
G02*
X129900000Y-107074999I0J-249999D01*
G01*
X129900000Y-108325001D01*
G75*
G02*
X129650001Y-108575000I-249999J0D01*
G01*
X129024999Y-108575000D01*
G75*
G02*
X128775000Y-108325001I0J249999D01*
G01*
G37*
%TD.AperFunction*%
%TD*%
%TO.P,D1,2*%
%TO.N,Net-(D1-Pad2)*%
%TA.AperFunction,SMDPad,CuDef*%
G36*
G01*
X155325000Y-89825000D02*
X155325000Y-91975000D01*
G75*
G02*
X155075000Y-92225000I-250000J0D01*
G01*
X154325000Y-92225000D01*
G75*
G02*
X154075000Y-91975000I0J250000D01*
G01*
X154075000Y-89825000D01*
G75*
G02*
X154325000Y-89575000I250000J0D01*
G01*
X155075000Y-89575000D01*
G75*
G02*
X155325000Y-89825000I0J-250000D01*
G01*
G37*
%TD.AperFunction*%
%TO.P,D1,1*%
%TO.N,Net-(BT1-Pad2)*%
%TA.AperFunction,SMDPad,CuDef*%
G36*
G01*
X158125000Y-89825000D02*
X158125000Y-91975000D01*
G75*
G02*
X157875000Y-92225000I-250000J0D01*
G01*
X157125000Y-92225000D01*
G75*
G02*
X156875000Y-91975000I0J250000D01*
G01*
X156875000Y-89825000D01*
G75*
G02*
X157125000Y-89575000I250000J0D01*
G01*
X157875000Y-89575000D01*
G75*
G02*
X158125000Y-89825000I0J-250000D01*
G01*
G37*
%TD.AperFunction*%
%TD*%
D13*
%TO.P,BT1,2*%
%TO.N,Net-(BT1-Pad2)*%
X150390000Y-99800000D03*
D14*
%TO.P,BT1,1*%
%TO.N,Net-(BT1-Pad1)*%
X129900000Y-99800000D03*
%TD*%
D15*
%TO.N,Net-(BT1-Pad2)*%
X157500000Y-92690000D02*
X150390000Y-99800000D01*
X157500000Y-90900000D02*
X157500000Y-92690000D01*
%TO.N,Net-(BT1-Pad1)*%
X129900000Y-107137500D02*
X129337500Y-107700000D01*
X129900000Y-99800000D02*
X129900000Y-107137500D01*
%TO.N,Net-(D1-Pad2)*%
X145900000Y-99700000D02*
X154700000Y-90900000D01*
X144000000Y-99700000D02*
X145900000Y-99700000D01*
%TO.N,Net-(R1-Pad2)*%
X132262500Y-103637500D02*
X136200000Y-99700000D01*
X132262500Y-107700000D02*
X132262500Y-103637500D01*
%TD*%
M02*
