%TF.GenerationSoftware,KiCad,Pcbnew,(5.1.9)-1*%
%TF.CreationDate,2024-06-03T11:22:04+08:00*%
%TF.ProjectId,task1,7461736b-312e-46b6-9963-61645f706362,rev?*%
%TF.SameCoordinates,Original*%
%TF.FileFunction,Paste,Bot*%
%TF.FilePolarity,Positive*%
%FSLAX46Y46*%
G04 Gerber Fmt 4.6, Leading zero omitted, Abs format (unit mm)*
G04 Created by KiCad (PCBNEW (5.1.9)-1) date 2024-06-03 11:22:04*
%MOMM*%
%LPD*%
G01*
G04 APERTURE LIST*
%ADD10C,0.300000*%
%TA.AperFunction,Profile*%
%ADD11C,0.200000*%
%TD*%
G04 APERTURE END LIST*
D10*
X125414285Y-123892857D02*
X125628571Y-123964285D01*
X125700000Y-124035714D01*
X125771428Y-124178571D01*
X125771428Y-124392857D01*
X125700000Y-124535714D01*
X125628571Y-124607142D01*
X125485714Y-124678571D01*
X124914285Y-124678571D01*
X124914285Y-123178571D01*
X125414285Y-123178571D01*
X125557142Y-123250000D01*
X125628571Y-123321428D01*
X125700000Y-123464285D01*
X125700000Y-123607142D01*
X125628571Y-123750000D01*
X125557142Y-123821428D01*
X125414285Y-123892857D01*
X124914285Y-123892857D01*
X126628571Y-124678571D02*
X126485714Y-124607142D01*
X126414285Y-124535714D01*
X126342857Y-124392857D01*
X126342857Y-123964285D01*
X126414285Y-123821428D01*
X126485714Y-123750000D01*
X126628571Y-123678571D01*
X126842857Y-123678571D01*
X126985714Y-123750000D01*
X127057142Y-123821428D01*
X127128571Y-123964285D01*
X127128571Y-124392857D01*
X127057142Y-124535714D01*
X126985714Y-124607142D01*
X126842857Y-124678571D01*
X126628571Y-124678571D01*
X127557142Y-123678571D02*
X128128571Y-123678571D01*
X127771428Y-123178571D02*
X127771428Y-124464285D01*
X127842857Y-124607142D01*
X127985714Y-124678571D01*
X128128571Y-124678571D01*
X128414285Y-123678571D02*
X128985714Y-123678571D01*
X128628571Y-123178571D02*
X128628571Y-124464285D01*
X128700000Y-124607142D01*
X128842857Y-124678571D01*
X128985714Y-124678571D01*
X129700000Y-124678571D02*
X129557142Y-124607142D01*
X129485714Y-124535714D01*
X129414285Y-124392857D01*
X129414285Y-123964285D01*
X129485714Y-123821428D01*
X129557142Y-123750000D01*
X129700000Y-123678571D01*
X129914285Y-123678571D01*
X130057142Y-123750000D01*
X130128571Y-123821428D01*
X130200000Y-123964285D01*
X130200000Y-124392857D01*
X130128571Y-124535714D01*
X130057142Y-124607142D01*
X129914285Y-124678571D01*
X129700000Y-124678571D01*
X130842857Y-124678571D02*
X130842857Y-123678571D01*
X130842857Y-123821428D02*
X130914285Y-123750000D01*
X131057142Y-123678571D01*
X131271428Y-123678571D01*
X131414285Y-123750000D01*
X131485714Y-123892857D01*
X131485714Y-124678571D01*
X131485714Y-123892857D02*
X131557142Y-123750000D01*
X131700000Y-123678571D01*
X131914285Y-123678571D01*
X132057142Y-123750000D01*
X132128571Y-123892857D01*
X132128571Y-124678571D01*
X133985714Y-124678571D02*
X133985714Y-123178571D01*
X134557142Y-123178571D01*
X134700000Y-123250000D01*
X134771428Y-123321428D01*
X134842857Y-123464285D01*
X134842857Y-123678571D01*
X134771428Y-123821428D01*
X134700000Y-123892857D01*
X134557142Y-123964285D01*
X133985714Y-123964285D01*
X136128571Y-124678571D02*
X136128571Y-123892857D01*
X136057142Y-123750000D01*
X135914285Y-123678571D01*
X135628571Y-123678571D01*
X135485714Y-123750000D01*
X136128571Y-124607142D02*
X135985714Y-124678571D01*
X135628571Y-124678571D01*
X135485714Y-124607142D01*
X135414285Y-124464285D01*
X135414285Y-124321428D01*
X135485714Y-124178571D01*
X135628571Y-124107142D01*
X135985714Y-124107142D01*
X136128571Y-124035714D01*
X136771428Y-124607142D02*
X136914285Y-124678571D01*
X137200000Y-124678571D01*
X137342857Y-124607142D01*
X137414285Y-124464285D01*
X137414285Y-124392857D01*
X137342857Y-124250000D01*
X137200000Y-124178571D01*
X136985714Y-124178571D01*
X136842857Y-124107142D01*
X136771428Y-123964285D01*
X136771428Y-123892857D01*
X136842857Y-123750000D01*
X136985714Y-123678571D01*
X137200000Y-123678571D01*
X137342857Y-123750000D01*
X137842857Y-123678571D02*
X138414285Y-123678571D01*
X138057142Y-123178571D02*
X138057142Y-124464285D01*
X138128571Y-124607142D01*
X138271428Y-124678571D01*
X138414285Y-124678571D01*
X139485714Y-124607142D02*
X139342857Y-124678571D01*
X139057142Y-124678571D01*
X138914285Y-124607142D01*
X138842857Y-124464285D01*
X138842857Y-123892857D01*
X138914285Y-123750000D01*
X139057142Y-123678571D01*
X139342857Y-123678571D01*
X139485714Y-123750000D01*
X139557142Y-123892857D01*
X139557142Y-124035714D01*
X138842857Y-124178571D01*
D11*
X160787600Y-102085200D02*
X150787600Y-112085200D01*
X160787600Y-87085200D02*
X160787600Y-102085200D01*
X125787600Y-112085200D02*
X150787600Y-112085200D01*
X125787600Y-87085200D02*
X125787600Y-112085200D01*
X125787600Y-87085200D02*
X160787600Y-87085200D01*
M02*
