%TF.GenerationSoftware,KiCad,Pcbnew,(5.1.9)-1*%
%TF.CreationDate,2024-06-03T11:22:04+08:00*%
%TF.ProjectId,task1,7461736b-312e-46b6-9963-61645f706362,rev?*%
%TF.SameCoordinates,Original*%
%TF.FileFunction,Paste,Top*%
%TF.FilePolarity,Positive*%
%FSLAX46Y46*%
G04 Gerber Fmt 4.6, Leading zero omitted, Abs format (unit mm)*
G04 Created by KiCad (PCBNEW (5.1.9)-1) date 2024-06-03 11:22:04*
%MOMM*%
%LPD*%
G01*
G04 APERTURE LIST*
%TA.AperFunction,Profile*%
%ADD10C,0.200000*%
%TD*%
%ADD11R,1.500000X1.500000*%
G04 APERTURE END LIST*
D10*
X160787600Y-102085200D02*
X150787600Y-112085200D01*
X160787600Y-87085200D02*
X160787600Y-102085200D01*
X125787600Y-112085200D02*
X150787600Y-112085200D01*
X125787600Y-87085200D02*
X125787600Y-112085200D01*
X125787600Y-87085200D02*
X160787600Y-87085200D01*
D11*
%TO.C,SW1*%
X136200000Y-99700000D03*
X144000000Y-99700000D03*
%TD*%
%TO.C,R1*%
G36*
G01*
X131700000Y-108325001D02*
X131700000Y-107074999D01*
G75*
G02*
X131949999Y-106825000I249999J0D01*
G01*
X132575001Y-106825000D01*
G75*
G02*
X132825000Y-107074999I0J-249999D01*
G01*
X132825000Y-108325001D01*
G75*
G02*
X132575001Y-108575000I-249999J0D01*
G01*
X131949999Y-108575000D01*
G75*
G02*
X131700000Y-108325001I0J249999D01*
G01*
G37*
G36*
G01*
X128775000Y-108325001D02*
X128775000Y-107074999D01*
G75*
G02*
X129024999Y-106825000I249999J0D01*
G01*
X129650001Y-106825000D01*
G75*
G02*
X129900000Y-107074999I0J-249999D01*
G01*
X129900000Y-108325001D01*
G75*
G02*
X129650001Y-108575000I-249999J0D01*
G01*
X129024999Y-108575000D01*
G75*
G02*
X128775000Y-108325001I0J249999D01*
G01*
G37*
%TD*%
%TO.C,D1*%
G36*
G01*
X155325000Y-89825000D02*
X155325000Y-91975000D01*
G75*
G02*
X155075000Y-92225000I-250000J0D01*
G01*
X154325000Y-92225000D01*
G75*
G02*
X154075000Y-91975000I0J250000D01*
G01*
X154075000Y-89825000D01*
G75*
G02*
X154325000Y-89575000I250000J0D01*
G01*
X155075000Y-89575000D01*
G75*
G02*
X155325000Y-89825000I0J-250000D01*
G01*
G37*
G36*
G01*
X158125000Y-89825000D02*
X158125000Y-91975000D01*
G75*
G02*
X157875000Y-92225000I-250000J0D01*
G01*
X157125000Y-92225000D01*
G75*
G02*
X156875000Y-91975000I0J250000D01*
G01*
X156875000Y-89825000D01*
G75*
G02*
X157125000Y-89575000I250000J0D01*
G01*
X157875000Y-89575000D01*
G75*
G02*
X158125000Y-89825000I0J-250000D01*
G01*
G37*
%TD*%
M02*
