%TF.GenerationSoftware,KiCad,Pcbnew,(5.1.9)-1*%
%TF.CreationDate,2024-06-03T11:22:04+08:00*%
%TF.ProjectId,task1,7461736b-312e-46b6-9963-61645f706362,rev?*%
%TF.SameCoordinates,Original*%
%TF.FileFunction,Soldermask,Top*%
%TF.FilePolarity,Negative*%
%FSLAX46Y46*%
G04 Gerber Fmt 4.6, Leading zero omitted, Abs format (unit mm)*
G04 Created by KiCad (PCBNEW (5.1.9)-1) date 2024-06-03 11:22:04*
%MOMM*%
%LPD*%
G01*
G04 APERTURE LIST*
%ADD10C,0.300000*%
%TA.AperFunction,Profile*%
%ADD11C,0.200000*%
%TD*%
%ADD12R,1.500000X1.500000*%
%ADD13C,4.000000*%
%ADD14C,3.000000*%
%ADD15R,3.000000X3.000000*%
G04 APERTURE END LIST*
D10*
X124778571Y-132078571D02*
X125635714Y-132078571D01*
X125207142Y-133578571D02*
X125207142Y-132078571D01*
X126350000Y-133578571D02*
X126207142Y-133507142D01*
X126135714Y-133435714D01*
X126064285Y-133292857D01*
X126064285Y-132864285D01*
X126135714Y-132721428D01*
X126207142Y-132650000D01*
X126350000Y-132578571D01*
X126564285Y-132578571D01*
X126707142Y-132650000D01*
X126778571Y-132721428D01*
X126850000Y-132864285D01*
X126850000Y-133292857D01*
X126778571Y-133435714D01*
X126707142Y-133507142D01*
X126564285Y-133578571D01*
X126350000Y-133578571D01*
X127492857Y-132578571D02*
X127492857Y-134078571D01*
X127492857Y-132650000D02*
X127635714Y-132578571D01*
X127921428Y-132578571D01*
X128064285Y-132650000D01*
X128135714Y-132721428D01*
X128207142Y-132864285D01*
X128207142Y-133292857D01*
X128135714Y-133435714D01*
X128064285Y-133507142D01*
X127921428Y-133578571D01*
X127635714Y-133578571D01*
X127492857Y-133507142D01*
X129921428Y-133507142D02*
X130135714Y-133578571D01*
X130492857Y-133578571D01*
X130635714Y-133507142D01*
X130707142Y-133435714D01*
X130778571Y-133292857D01*
X130778571Y-133150000D01*
X130707142Y-133007142D01*
X130635714Y-132935714D01*
X130492857Y-132864285D01*
X130207142Y-132792857D01*
X130064285Y-132721428D01*
X129992857Y-132650000D01*
X129921428Y-132507142D01*
X129921428Y-132364285D01*
X129992857Y-132221428D01*
X130064285Y-132150000D01*
X130207142Y-132078571D01*
X130564285Y-132078571D01*
X130778571Y-132150000D01*
X131635714Y-133578571D02*
X131492857Y-133507142D01*
X131421428Y-133435714D01*
X131350000Y-133292857D01*
X131350000Y-132864285D01*
X131421428Y-132721428D01*
X131492857Y-132650000D01*
X131635714Y-132578571D01*
X131850000Y-132578571D01*
X131992857Y-132650000D01*
X132064285Y-132721428D01*
X132135714Y-132864285D01*
X132135714Y-133292857D01*
X132064285Y-133435714D01*
X131992857Y-133507142D01*
X131850000Y-133578571D01*
X131635714Y-133578571D01*
X132992857Y-133578571D02*
X132850000Y-133507142D01*
X132778571Y-133364285D01*
X132778571Y-132078571D01*
X134207142Y-133578571D02*
X134207142Y-132078571D01*
X134207142Y-133507142D02*
X134064285Y-133578571D01*
X133778571Y-133578571D01*
X133635714Y-133507142D01*
X133564285Y-133435714D01*
X133492857Y-133292857D01*
X133492857Y-132864285D01*
X133564285Y-132721428D01*
X133635714Y-132650000D01*
X133778571Y-132578571D01*
X134064285Y-132578571D01*
X134207142Y-132650000D01*
X135492857Y-133507142D02*
X135350000Y-133578571D01*
X135064285Y-133578571D01*
X134921428Y-133507142D01*
X134850000Y-133364285D01*
X134850000Y-132792857D01*
X134921428Y-132650000D01*
X135064285Y-132578571D01*
X135350000Y-132578571D01*
X135492857Y-132650000D01*
X135564285Y-132792857D01*
X135564285Y-132935714D01*
X134850000Y-133078571D01*
X136207142Y-133578571D02*
X136207142Y-132578571D01*
X136207142Y-132864285D02*
X136278571Y-132721428D01*
X136350000Y-132650000D01*
X136492857Y-132578571D01*
X136635714Y-132578571D01*
X137135714Y-133578571D02*
X137135714Y-132578571D01*
X137135714Y-132721428D02*
X137207142Y-132650000D01*
X137350000Y-132578571D01*
X137564285Y-132578571D01*
X137707142Y-132650000D01*
X137778571Y-132792857D01*
X137778571Y-133578571D01*
X137778571Y-132792857D02*
X137850000Y-132650000D01*
X137992857Y-132578571D01*
X138207142Y-132578571D01*
X138350000Y-132650000D01*
X138421428Y-132792857D01*
X138421428Y-133578571D01*
X139778571Y-133578571D02*
X139778571Y-132792857D01*
X139707142Y-132650000D01*
X139564285Y-132578571D01*
X139278571Y-132578571D01*
X139135714Y-132650000D01*
X139778571Y-133507142D02*
X139635714Y-133578571D01*
X139278571Y-133578571D01*
X139135714Y-133507142D01*
X139064285Y-133364285D01*
X139064285Y-133221428D01*
X139135714Y-133078571D01*
X139278571Y-133007142D01*
X139635714Y-133007142D01*
X139778571Y-132935714D01*
X140421428Y-133507142D02*
X140564285Y-133578571D01*
X140850000Y-133578571D01*
X140992857Y-133507142D01*
X141064285Y-133364285D01*
X141064285Y-133292857D01*
X140992857Y-133150000D01*
X140850000Y-133078571D01*
X140635714Y-133078571D01*
X140492857Y-133007142D01*
X140421428Y-132864285D01*
X140421428Y-132792857D01*
X140492857Y-132650000D01*
X140635714Y-132578571D01*
X140850000Y-132578571D01*
X140992857Y-132650000D01*
X141707142Y-133578571D02*
X141707142Y-132078571D01*
X141850000Y-133007142D02*
X142278571Y-133578571D01*
X142278571Y-132578571D02*
X141707142Y-133150000D01*
D11*
X160787600Y-102085200D02*
X150787600Y-112085200D01*
X160787600Y-87085200D02*
X160787600Y-102085200D01*
X125787600Y-112085200D02*
X150787600Y-112085200D01*
X125787600Y-87085200D02*
X125787600Y-112085200D01*
X125787600Y-87085200D02*
X160787600Y-87085200D01*
D12*
%TO.C,SW1*%
X136200000Y-99700000D03*
X144000000Y-99700000D03*
%TD*%
%TO.C,R1*%
G36*
G01*
X131700000Y-108325001D02*
X131700000Y-107074999D01*
G75*
G02*
X131949999Y-106825000I249999J0D01*
G01*
X132575001Y-106825000D01*
G75*
G02*
X132825000Y-107074999I0J-249999D01*
G01*
X132825000Y-108325001D01*
G75*
G02*
X132575001Y-108575000I-249999J0D01*
G01*
X131949999Y-108575000D01*
G75*
G02*
X131700000Y-108325001I0J249999D01*
G01*
G37*
G36*
G01*
X128775000Y-108325001D02*
X128775000Y-107074999D01*
G75*
G02*
X129024999Y-106825000I249999J0D01*
G01*
X129650001Y-106825000D01*
G75*
G02*
X129900000Y-107074999I0J-249999D01*
G01*
X129900000Y-108325001D01*
G75*
G02*
X129650001Y-108575000I-249999J0D01*
G01*
X129024999Y-108575000D01*
G75*
G02*
X128775000Y-108325001I0J249999D01*
G01*
G37*
%TD*%
D13*
%TO.C,H1*%
X130800000Y-92100000D03*
%TD*%
%TO.C,D1*%
G36*
G01*
X155325000Y-89825000D02*
X155325000Y-91975000D01*
G75*
G02*
X155075000Y-92225000I-250000J0D01*
G01*
X154325000Y-92225000D01*
G75*
G02*
X154075000Y-91975000I0J250000D01*
G01*
X154075000Y-89825000D01*
G75*
G02*
X154325000Y-89575000I250000J0D01*
G01*
X155075000Y-89575000D01*
G75*
G02*
X155325000Y-89825000I0J-250000D01*
G01*
G37*
G36*
G01*
X158125000Y-89825000D02*
X158125000Y-91975000D01*
G75*
G02*
X157875000Y-92225000I-250000J0D01*
G01*
X157125000Y-92225000D01*
G75*
G02*
X156875000Y-91975000I0J250000D01*
G01*
X156875000Y-89825000D01*
G75*
G02*
X157125000Y-89575000I250000J0D01*
G01*
X157875000Y-89575000D01*
G75*
G02*
X158125000Y-89825000I0J-250000D01*
G01*
G37*
%TD*%
D14*
%TO.C,BT1*%
X150390000Y-99800000D03*
D15*
X129900000Y-99800000D03*
%TD*%
M02*
