%TF.GenerationSoftware,KiCad,Pcbnew,(5.1.9)-1*%
%TF.CreationDate,2024-06-03T11:22:04+08:00*%
%TF.ProjectId,task1,7461736b-312e-46b6-9963-61645f706362,rev?*%
%TF.SameCoordinates,Original*%
%TF.FileFunction,Legend,Bot*%
%TF.FilePolarity,Positive*%
%FSLAX46Y46*%
G04 Gerber Fmt 4.6, Leading zero omitted, Abs format (unit mm)*
G04 Created by KiCad (PCBNEW (5.1.9)-1) date 2024-06-03 11:22:04*
%MOMM*%
%LPD*%
G01*
G04 APERTURE LIST*
%ADD10C,0.300000*%
%TA.AperFunction,Profile*%
%ADD11C,0.200000*%
%TD*%
%ADD12C,0.120000*%
%ADD13C,0.150000*%
G04 APERTURE END LIST*
D10*
X125471428Y-129892857D02*
X125685714Y-129964285D01*
X125757142Y-130035714D01*
X125828571Y-130178571D01*
X125828571Y-130392857D01*
X125757142Y-130535714D01*
X125685714Y-130607142D01*
X125542857Y-130678571D01*
X124971428Y-130678571D01*
X124971428Y-129178571D01*
X125471428Y-129178571D01*
X125614285Y-129250000D01*
X125685714Y-129321428D01*
X125757142Y-129464285D01*
X125757142Y-129607142D01*
X125685714Y-129750000D01*
X125614285Y-129821428D01*
X125471428Y-129892857D01*
X124971428Y-129892857D01*
X126685714Y-130678571D02*
X126542857Y-130607142D01*
X126471428Y-130535714D01*
X126400000Y-130392857D01*
X126400000Y-129964285D01*
X126471428Y-129821428D01*
X126542857Y-129750000D01*
X126685714Y-129678571D01*
X126900000Y-129678571D01*
X127042857Y-129750000D01*
X127114285Y-129821428D01*
X127185714Y-129964285D01*
X127185714Y-130392857D01*
X127114285Y-130535714D01*
X127042857Y-130607142D01*
X126900000Y-130678571D01*
X126685714Y-130678571D01*
X127614285Y-129678571D02*
X128185714Y-129678571D01*
X127828571Y-129178571D02*
X127828571Y-130464285D01*
X127900000Y-130607142D01*
X128042857Y-130678571D01*
X128185714Y-130678571D01*
X128471428Y-129678571D02*
X129042857Y-129678571D01*
X128685714Y-129178571D02*
X128685714Y-130464285D01*
X128757142Y-130607142D01*
X128900000Y-130678571D01*
X129042857Y-130678571D01*
X129757142Y-130678571D02*
X129614285Y-130607142D01*
X129542857Y-130535714D01*
X129471428Y-130392857D01*
X129471428Y-129964285D01*
X129542857Y-129821428D01*
X129614285Y-129750000D01*
X129757142Y-129678571D01*
X129971428Y-129678571D01*
X130114285Y-129750000D01*
X130185714Y-129821428D01*
X130257142Y-129964285D01*
X130257142Y-130392857D01*
X130185714Y-130535714D01*
X130114285Y-130607142D01*
X129971428Y-130678571D01*
X129757142Y-130678571D01*
X130900000Y-130678571D02*
X130900000Y-129678571D01*
X130900000Y-129821428D02*
X130971428Y-129750000D01*
X131114285Y-129678571D01*
X131328571Y-129678571D01*
X131471428Y-129750000D01*
X131542857Y-129892857D01*
X131542857Y-130678571D01*
X131542857Y-129892857D02*
X131614285Y-129750000D01*
X131757142Y-129678571D01*
X131971428Y-129678571D01*
X132114285Y-129750000D01*
X132185714Y-129892857D01*
X132185714Y-130678571D01*
X133971428Y-130607142D02*
X134185714Y-130678571D01*
X134542857Y-130678571D01*
X134685714Y-130607142D01*
X134757142Y-130535714D01*
X134828571Y-130392857D01*
X134828571Y-130250000D01*
X134757142Y-130107142D01*
X134685714Y-130035714D01*
X134542857Y-129964285D01*
X134257142Y-129892857D01*
X134114285Y-129821428D01*
X134042857Y-129750000D01*
X133971428Y-129607142D01*
X133971428Y-129464285D01*
X134042857Y-129321428D01*
X134114285Y-129250000D01*
X134257142Y-129178571D01*
X134614285Y-129178571D01*
X134828571Y-129250000D01*
X135471428Y-130678571D02*
X135471428Y-129678571D01*
X135471428Y-129178571D02*
X135400000Y-129250000D01*
X135471428Y-129321428D01*
X135542857Y-129250000D01*
X135471428Y-129178571D01*
X135471428Y-129321428D01*
X136400000Y-130678571D02*
X136257142Y-130607142D01*
X136185714Y-130464285D01*
X136185714Y-129178571D01*
X136971428Y-130678571D02*
X136971428Y-129178571D01*
X137114285Y-130107142D02*
X137542857Y-130678571D01*
X137542857Y-129678571D02*
X136971428Y-130250000D01*
X138114285Y-130607142D02*
X138257142Y-130678571D01*
X138542857Y-130678571D01*
X138685714Y-130607142D01*
X138757142Y-130464285D01*
X138757142Y-130392857D01*
X138685714Y-130250000D01*
X138542857Y-130178571D01*
X138328571Y-130178571D01*
X138185714Y-130107142D01*
X138114285Y-129964285D01*
X138114285Y-129892857D01*
X138185714Y-129750000D01*
X138328571Y-129678571D01*
X138542857Y-129678571D01*
X138685714Y-129750000D01*
X140042857Y-130607142D02*
X139900000Y-130678571D01*
X139614285Y-130678571D01*
X139471428Y-130607142D01*
X139400000Y-130535714D01*
X139328571Y-130392857D01*
X139328571Y-129964285D01*
X139400000Y-129821428D01*
X139471428Y-129750000D01*
X139614285Y-129678571D01*
X139900000Y-129678571D01*
X140042857Y-129750000D01*
X140685714Y-130678571D02*
X140685714Y-129678571D01*
X140685714Y-129964285D02*
X140757142Y-129821428D01*
X140828571Y-129750000D01*
X140971428Y-129678571D01*
X141114285Y-129678571D01*
X142185714Y-130607142D02*
X142042857Y-130678571D01*
X141757142Y-130678571D01*
X141614285Y-130607142D01*
X141542857Y-130464285D01*
X141542857Y-129892857D01*
X141614285Y-129750000D01*
X141757142Y-129678571D01*
X142042857Y-129678571D01*
X142185714Y-129750000D01*
X142257142Y-129892857D01*
X142257142Y-130035714D01*
X141542857Y-130178571D01*
X143471428Y-130607142D02*
X143328571Y-130678571D01*
X143042857Y-130678571D01*
X142900000Y-130607142D01*
X142828571Y-130464285D01*
X142828571Y-129892857D01*
X142900000Y-129750000D01*
X143042857Y-129678571D01*
X143328571Y-129678571D01*
X143471428Y-129750000D01*
X143542857Y-129892857D01*
X143542857Y-130035714D01*
X142828571Y-130178571D01*
X144185714Y-129678571D02*
X144185714Y-130678571D01*
X144185714Y-129821428D02*
X144257142Y-129750000D01*
X144400000Y-129678571D01*
X144614285Y-129678571D01*
X144757142Y-129750000D01*
X144828571Y-129892857D01*
X144828571Y-130678571D01*
D11*
X160787600Y-102085200D02*
X150787600Y-112085200D01*
X160787600Y-87085200D02*
X160787600Y-102085200D01*
X125787600Y-112085200D02*
X150787600Y-112085200D01*
X125787600Y-87085200D02*
X125787600Y-112085200D01*
X125787600Y-87085200D02*
X160787600Y-87085200D01*
D12*
%TO.C,BT1*%
X156595671Y-99845281D02*
G75*
G03*
X134150000Y-96300000I-11495671J45281D01*
G01*
X134151754Y-96273616D02*
G75*
G02*
X133400000Y-96800000I-751754J273616D01*
G01*
X156595671Y-99754719D02*
G75*
G02*
X134150000Y-103300000I-11495671J-45281D01*
G01*
X134151754Y-103326384D02*
G75*
G03*
X133400000Y-102800000I-751754J-273616D01*
G01*
X127700000Y-96800000D02*
X133400000Y-96800000D01*
X127700000Y-96800000D02*
X127700000Y-102800000D01*
X127700000Y-102800000D02*
X133400000Y-102800000D01*
%TD*%
%TO.C,BT1*%
D13*
X130685714Y-104028571D02*
X130542857Y-104076190D01*
X130495238Y-104123809D01*
X130447619Y-104219047D01*
X130447619Y-104361904D01*
X130495238Y-104457142D01*
X130542857Y-104504761D01*
X130638095Y-104552380D01*
X131019047Y-104552380D01*
X131019047Y-103552380D01*
X130685714Y-103552380D01*
X130590476Y-103600000D01*
X130542857Y-103647619D01*
X130495238Y-103742857D01*
X130495238Y-103838095D01*
X130542857Y-103933333D01*
X130590476Y-103980952D01*
X130685714Y-104028571D01*
X131019047Y-104028571D01*
X130161904Y-103552380D02*
X129590476Y-103552380D01*
X129876190Y-104552380D02*
X129876190Y-103552380D01*
X128733333Y-104552380D02*
X129304761Y-104552380D01*
X129019047Y-104552380D02*
X129019047Y-103552380D01*
X129114285Y-103695238D01*
X129209523Y-103790476D01*
X129304761Y-103838095D01*
X133221428Y-99907142D02*
X132078571Y-99907142D01*
X132650000Y-100478571D02*
X132650000Y-99335714D01*
%TD*%
M02*
